<?xml version="1.0" encoding="UTF-8" standalone="no" ?>
<!DOCTYPE svg PUBLIC "-//W3C//DTD SVG 1.1//EN" "http://www.w3.org/Graphics/SVG/1.1/DTD/svg11.dtd">
<svg xmlns="http://www.w3.org/2000/svg" xmlns:xlink="http://www.w3.org/1999/xlink" version="1.1" width="1280" height="1024" viewBox="0 0 1280 1024" xml:space="preserve">
<desc>Created with Fabric.js 5.3.0</desc>
<defs>
</defs>
<g transform="matrix(1 0 0 1 640 512)" id="background-logo"  >
<rect style="stroke: none; stroke-width: 0; stroke-dasharray: none; stroke-linecap: butt; stroke-dashoffset: 0; stroke-linejoin: miter; stroke-miterlimit: 4; fill: rgb(255,255,255); fill-rule: nonzero; opacity: 1;"  paint-order="stroke"  x="-640" y="-512" rx="0" ry="0" width="1280" height="1024" />
</g>
<g transform="matrix(2.7106503392869126 0 0 2.7106503392869126 638.9954895426341 342.7862405599009)" id="logo-logo"  >
<g style=""  paint-order="stroke"   >
		<g transform="matrix(1.0576801530245927 0 0 -1.0576801530245927 0 -44.59285423063332)"  >
<linearGradient id="SVGID_2_400008" gradientUnits="userSpaceOnUse" gradientTransform="matrix(0 -149.29649 -149.29649 0 162.5 194)"  x1="0" y1="0" x2="1" y2="0">
<stop offset="0%" style="stop-color:rgb(196,238,128);stop-opacity: 1"/>
<stop offset="0.000019999999999999998%" style="stop-color:rgb(196,238,128);stop-opacity: 1"/>
<stop offset="100%" style="stop-color:rgb(6,147,128);stop-opacity: 1"/>
</linearGradient>
<path style="stroke: none; stroke-width: 1; stroke-dasharray: none; stroke-linecap: butt; stroke-dashoffset: 0; stroke-linejoin: miter; stroke-miterlimit: 4; fill: url(#SVGID_2_400008); fill-rule: nonzero; opacity: 1;"  paint-order="stroke"  transform=" translate(-162.5, -172.28549999999998)" d="M 162.498 194.35 L 184.56099999999998 172.28799999999998 L 162.498 150.231 L 140.438 172.28799999999998 z M 205.874 172.28799999999998 L 162.498 215.65599999999998 L 119.12599999999999 172.28799999999998 L 162.498 128.915 z" stroke-linecap="round" />
</g>
		<g transform="matrix(1.0576801530245927 0 0 -1.0576801530245927 -57.11472969119626 59.32422340195984)"  >
<linearGradient id="SVGID_3_400009" gradientUnits="userSpaceOnUse" gradientTransform="matrix(0 -149.29649 -149.29649 0 108.58447 194)"  x1="0" y1="0" x2="1" y2="0">
<stop offset="0%" style="stop-color:rgb(196,238,128);stop-opacity: 1"/>
<stop offset="0.000019999999999999998%" style="stop-color:rgb(196,238,128);stop-opacity: 1"/>
<stop offset="100%" style="stop-color:rgb(6,147,128);stop-opacity: 1"/>
</linearGradient>
<path style="stroke: none; stroke-width: 1; stroke-dasharray: none; stroke-linecap: butt; stroke-dashoffset: 0; stroke-linejoin: miter; stroke-miterlimit: 4; fill: url(#SVGID_3_400009); fill-rule: nonzero; opacity: 1;"  paint-order="stroke"  transform=" translate(-108.58449999999999, -73.78649999999999)" d="M 130.663 59.051 L 108.58500000000001 59.051 L 86.50500000000001 59.051 L 86.50500000000001 103.229 L 71.088 87.809 L 71.088 47.233999999999995 L 71.088 44.343999999999994 L 86.505 44.343999999999994 L 108.585 44.343999999999994 L 130.66299999999998 44.343999999999994 L 146.081 44.343999999999994 L 146.081 47.233999999999995 L 146.081 87.809 L 130.66299999999998 103.229 z" stroke-linecap="round" />
</g>
		<g transform="matrix(1.0576801530245927 0 0 -1.0576801530245927 57.11472969119626 59.32422340195984)"  >
<linearGradient id="SVGID_4_400010" gradientUnits="userSpaceOnUse" gradientTransform="matrix(0 -149.29649 -149.29649 0 216.41553 194)"  x1="0" y1="0" x2="1" y2="0">
<stop offset="0%" style="stop-color:rgb(196,238,128);stop-opacity: 1"/>
<stop offset="0.000019999999999999998%" style="stop-color:rgb(196,238,128);stop-opacity: 1"/>
<stop offset="100%" style="stop-color:rgb(6,147,128);stop-opacity: 1"/>
</linearGradient>
<path style="stroke: none; stroke-width: 1; stroke-dasharray: none; stroke-linecap: butt; stroke-dashoffset: 0; stroke-linejoin: miter; stroke-miterlimit: 4; fill: url(#SVGID_4_400010); fill-rule: nonzero; opacity: 1;"  paint-order="stroke"  transform=" translate(-216.41549999999998, -73.78649999999999)" d="M 238.491 59.051 L 216.41400000000002 59.051 L 194.336 59.051 L 194.336 103.229 L 178.92 87.809 L 178.92 47.233999999999995 L 178.92 44.343999999999994 L 194.33599999999998 44.343999999999994 L 216.414 44.343999999999994 L 238.49099999999999 44.343999999999994 L 253.91099999999997 44.343999999999994 L 253.91099999999997 47.233999999999995 L 253.91099999999997 87.809 L 238.49099999999999 103.229 z" stroke-linecap="round" />
</g>
		<g transform="matrix(1.0576801530245927 0 0 -1.0576801530245927 0 6.175794383763332)"  >
<linearGradient id="SVGID_5_400011" gradientUnits="userSpaceOnUse" gradientTransform="matrix(0 -149.29649 -149.29649 0 162.5 194)"  x1="0" y1="0" x2="1" y2="0">
<stop offset="0%" style="stop-color:rgb(196,238,128);stop-opacity: 1"/>
<stop offset="0.000019999999999999998%" style="stop-color:rgb(196,238,128);stop-opacity: 1"/>
<stop offset="100%" style="stop-color:rgb(6,147,128);stop-opacity: 1"/>
</linearGradient>
<path style="stroke: none; stroke-width: 1; stroke-dasharray: none; stroke-linecap: butt; stroke-dashoffset: 0; stroke-linejoin: miter; stroke-miterlimit: 4; fill: url(#SVGID_5_400011); fill-rule: nonzero; opacity: 1;"  paint-order="stroke"  transform=" translate(-162.49999999999997, -123.89250000000001)" d="M 162.498 106.884 L 108.10799999999999 161.274 L 47.08699999999999 100.82900000000001 L 69.38999999999999 100.81200000000001 C 82.41299999999998 114.14100000000002 95.38699999999999 127.24700000000001 108.58499999999998 140.431 L 108.58499999999998 140.431 L 162.498 86.51100000000001 L 216.414 140.431 C 229.613 127.24700000000001 242.587 114.14100000000002 255.60899999999998 100.81200000000001 L 255.60899999999998 100.81200000000001 L 277.91299999999995 100.82900000000001 L 216.89199999999994 161.274 z" stroke-linecap="round" />
</g>
</g>
</g>
<g transform="matrix(1.9211538461538462 0 0 1.9211538461538462 642.0993408653844 669.4758984003877)" id="text-logo"  >
<g style=""  paint-order="stroke"   >
		<g transform="matrix(1 0 0 1 0 0)" id="text-logo-path-0"  >
<path style="stroke: none; stroke-width: 0; stroke-dasharray: none; stroke-linecap: butt; stroke-dashoffset: 0; stroke-linejoin: miter; stroke-miterlimit: 4; fill: rgb(27,157,128); fill-rule: nonzero; opacity: 1;"  paint-order="stroke"  transform=" translate(-312.76, 16.45)" d="M 3.01 0 L 10.53 0 L 10.53 -10.57 L 14.85 -10.57 L 20.87 0 L 29.33 0 L 21.62 -12.83 C 25.1 -14.38 27.31 -17.2 27.31 -21.76 C 27.31 -28.15 22.84 -32.9 16.17 -32.9 L 3.01 -32.9 Z M 10.53 -17.63 L 10.53 -25.85 L 15.7 -25.85 C 18.52 -25.85 19.79 -24.68 19.79 -21.76 C 19.79 -18.89 18.61 -17.63 15.7 -17.63 Z M 64.2 0 L 72.66 0 L 61.85 -32.9 L 53.39 -32.9 L 42.58 0 L 51.04 0 L 52.59 -5.41 L 62.65 -5.41 Z M 54.61 -12.46 L 57.62 -23.03 L 60.63 -12.46 Z M 106.5 0 L 114.02 0 L 114.02 -32.9 L 106.5 -32.9 L 106.5 -19.98 L 94.75 -19.98 L 94.75 -32.9 L 87.23 -32.9 L 87.23 0 L 94.75 0 L 94.75 -12.93 L 106.5 -12.93 Z M 147.91 0 L 150.26 0 L 158.25 -18.05 L 158.25 0 L 165.77 0 L 165.77 -32.9 L 157.78 -32.9 L 149.08 -14.62 L 140.39 -32.9 L 132.4 -32.9 L 132.4 0 L 139.92 0 L 139.92 -18.05 Z M 184.15 0 L 205.95 0 L 205.95 -7.05 L 191.67 -7.05 L 191.67 -12.93 L 204.03 -12.93 L 204.03 -19.98 L 191.67 -19.98 L 191.67 -25.85 L 205.48 -25.85 L 205.48 -32.9 L 184.15 -32.9 Z M 263.34 0 L 271.8 0 L 260.99 -32.9 L 252.53 -32.9 L 241.72 0 L 250.18 0 L 251.73 -5.41 L 261.79 -5.41 Z M 253.75 -12.46 L 256.76 -23.03 L 259.77 -12.46 Z M 296.57 0.47 C 304.09 0.47 308.74 -4.93 308.74 -9.54 C 308.74 -14.99 303.81 -18.24 297.93 -20.12 C 293.98 -21.43 292.86 -22.14 292.86 -23.69 C 292.86 -25.05 294.5 -25.85 296.29 -25.85 C 298.26 -25.85 299.77 -24.82 301.22 -22.09 L 307.85 -26.04 C 305.45 -30.03 301.08 -33.37 296.29 -33.37 C 290.65 -33.37 285.34 -29 285.34 -23.69 C 285.34 -17.58 290.22 -15.28 295.77 -13.44 C 299.48 -12.22 300.89 -11.28 300.89 -9.54 C 300.89 -8.13 299.48 -7.05 296.57 -7.05 C 294.03 -7.05 291.92 -7.85 290.18 -11.19 L 283.79 -7.38 C 286.28 -3.1 290.51 0.47 296.57 0.47 Z M 335.34 0.47 C 342.86 0.47 347.52 -4.93 347.52 -9.54 C 347.52 -14.99 342.58 -18.24 336.71 -20.12 C 332.76 -21.43 331.63 -22.14 331.63 -23.69 C 331.63 -25.05 333.28 -25.85 335.06 -25.85 C 337.04 -25.85 338.54 -24.82 340 -22.09 L 346.62 -26.04 C 344.23 -30.03 339.86 -33.37 335.06 -33.37 C 329.42 -33.37 324.11 -29 324.11 -23.69 C 324.11 -17.58 329 -15.28 334.55 -13.44 C 338.26 -12.22 339.67 -11.28 339.67 -9.54 C 339.67 -8.13 338.26 -7.05 335.34 -7.05 C 332.81 -7.05 330.69 -7.85 328.95 -11.19 L 322.56 -7.38 C 325.05 -3.1 329.28 0.47 335.34 0.47 Z M 378.07 0.47 C 387.89 0.47 394.99 -6.2 394.99 -16.45 C 394.99 -26.23 388.27 -33.37 378.07 -33.37 C 368.24 -33.37 361.15 -26.7 361.15 -16.45 C 361.15 -6.63 367.82 0.47 378.07 0.47 Z M 368.67 -16.45 C 368.67 -21.86 372.43 -25.85 378.07 -25.85 C 383.47 -25.85 387.47 -22.09 387.47 -16.45 C 387.47 -11.04 383.71 -7.05 378.07 -7.05 C 372.66 -7.05 368.67 -10.81 368.67 -16.45 Z M 426.38 0.47 C 433.1 0.47 438.09 -2.35 441.33 -8.46 L 434.7 -12.08 C 433.06 -8.93 430.05 -7.05 426.38 -7.05 C 420.98 -7.05 416.98 -10.81 416.98 -16.45 C 416.98 -21.86 420.74 -25.85 426.38 -25.85 C 430 -25.85 432.73 -24.3 434.56 -21.06 L 441.28 -24.53 C 438.32 -29.99 432.87 -33.37 426.38 -33.37 C 416.56 -33.37 409.46 -26.7 409.46 -16.45 C 409.46 -6.63 416.14 0.47 426.38 0.47 Z M 457.97 0 L 465.49 0 L 465.49 -32.9 L 457.97 -32.9 Z M 501.77 0 L 510.23 0 L 499.42 -32.9 L 490.96 -32.9 L 480.15 0 L 488.61 0 L 490.16 -5.41 L 500.22 -5.41 Z M 492.18 -12.46 L 495.19 -23.03 L 498.2 -12.46 Z M 529.83 0 L 537.35 0 L 537.35 -25.85 L 545.72 -25.85 L 545.72 -32.9 L 521.42 -32.9 L 521.42 -25.85 L 529.83 -25.85 Z M 561.51 0 L 583.32 0 L 583.32 -7.05 L 569.03 -7.05 L 569.03 -12.93 L 581.39 -12.93 L 581.39 -19.98 L 569.03 -19.98 L 569.03 -25.85 L 582.85 -25.85 L 582.85 -32.9 L 561.51 -32.9 Z M 610.34 0.47 C 617.86 0.47 622.51 -4.93 622.51 -9.54 C 622.51 -14.99 617.58 -18.24 611.7 -20.12 C 607.76 -21.43 606.63 -22.14 606.63 -23.69 C 606.63 -25.05 608.27 -25.85 610.06 -25.85 C 612.03 -25.85 613.54 -24.82 614.99 -22.09 L 621.62 -26.04 C 619.22 -30.03 614.85 -33.37 610.06 -33.37 C 604.42 -33.37 599.11 -29 599.11 -23.69 C 599.11 -17.58 604 -15.28 609.54 -13.44 C 613.26 -12.22 614.67 -11.28 614.67 -9.54 C 614.67 -8.13 613.26 -7.05 610.34 -7.05 C 607.8 -7.05 605.69 -7.85 603.95 -11.19 L 597.56 -7.38 C 600.05 -3.1 604.28 0.47 610.34 0.47 Z" stroke-linecap="round" />
</g>
</g>
</g>
</svg>